# xmcd
#
# Track frame offsets:
#	150
#	18270
#	36252
#	56217
#	71635
#	91968
#	110923
#	124501
#	137840
#	156170
#	169851
#	187063
#	207499
#
# Disc length: 3067 seconds
#
# Revision: 1
# Processed by: cddbd v1.5.2PL0 Copyright (c) Steve Scherf et al.
# Submitted via: audiograbber 1.83.01
#
DISCID=c20bf90d
DTITLE=Collin Raye - Everlasting
DYEAR=1900
DGENRE=
TTITLE0=Divine Everlasting Love
TTITLE1=Say Hello to Heaven 
TTITLE2=How Deep Is Your Love  
TTITLE3=Against All Odds 
TTITLE4=Love Song for A Vampire 
TTITLE5=Everything I Do. (I Do It For You) 
TTITLE6=Marie
TTITLE7=If
TTITLE8=We're All Alone
TTITLE9=She's Got A Way 
TTITLE10=Sorry Seems To Be the Hardest Word
TTITLE11=How Am I Suppose To Live
TTITLE12=Same Old Auld Lang Syne
EXTD=
EXTT0=
EXTT1=
EXTT2=
EXTT3=
EXTT4=
EXTT5=
EXTT6=
EXTT7=
EXTT8=
EXTT9=
EXTT10=
EXTT11=
EXTT12=
PLAYORDER=
